<?xml version="1.0" encoding="UTF-8" standalone="no"?><svg xmlns="http://www.w3.org/2000/svg" xmlns:xlink="http://www.w3.org/1999/xlink" contentScriptType="application/ecmascript" contentStyleType="text/css" height="690px" preserveAspectRatio="none" style="width:1586px;height:690px;" version="1.1" viewBox="0 0 1586 690" width="1586px" zoomAndPan="magnify"><defs/><g><!--MD5=[f6bfcafd820c9a76ef45106837fbc975]
entity pgt--><rect fill="#ADD8E6" height="120.9375" style="stroke:#A80036;stroke-width:3.0;" width="384" x="1191" y="558"/><rect fill="#ADD8E6" height="20" style="stroke:#A80036;stroke-width:3.0;" width="30" x="1535" y="568"/><rect fill="#ADD8E6" height="4" style="stroke:#A80036;stroke-width:3.0;" width="8" x="1531" y="572"/><rect fill="#ADD8E6" height="4" style="stroke:#A80036;stroke-width:3.0;" width="8" x="1531" y="580"/><text fill="#000000" font-family="Roboto" font-size="52" lengthAdjust="spacing" textLength="304" x="1221" y="646.2422">projection db</text><!--MD5=[deda91f2bf9c11baeebd5a13a4635f8d]
entity pgb--><rect fill="#ADD8E6" height="120.9375" style="stroke:#A80036;stroke-width:3.0;" width="388" x="965" y="14"/><rect fill="#ADD8E6" height="20" style="stroke:#A80036;stroke-width:3.0;" width="30" x="1313" y="24"/><rect fill="#ADD8E6" height="4" style="stroke:#A80036;stroke-width:3.0;" width="8" x="1309" y="28"/><rect fill="#ADD8E6" height="4" style="stroke:#A80036;stroke-width:3.0;" width="8" x="1309" y="36"/><text fill="#000000" font-family="Roboto" font-size="52" lengthAdjust="spacing" textLength="308" x="995" y="102.2422">aggregate db</text><!--MD5=[6d2a6cf4a8ae9c6575d0c7e23e26fe98]
entity ka--><rect fill="#D3D3D3" height="120.9375" style="stroke:#A80036;stroke-width:3.0;" width="212" x="909" y="558"/><rect fill="#D3D3D3" height="20" style="stroke:#A80036;stroke-width:3.0;" width="30" x="1081" y="568"/><rect fill="#D3D3D3" height="4" style="stroke:#A80036;stroke-width:3.0;" width="8" x="1077" y="572"/><rect fill="#D3D3D3" height="4" style="stroke:#A80036;stroke-width:3.0;" width="8" x="1077" y="580"/><text fill="#000000" font-family="Roboto" font-size="52" lengthAdjust="spacing" textLength="132" x="939" y="646.2422">Kafka</text><!--MD5=[6377be883f12643b62e189b60fe92e84]
entity ch--><rect fill="#FFFF00" height="120.9375" style="stroke:#A80036;stroke-width:3.0;" width="506" x="388" y="14"/><rect fill="#FFFF00" height="20" style="stroke:#A80036;stroke-width:3.0;" width="30" x="854" y="24"/><rect fill="#FFFF00" height="4" style="stroke:#A80036;stroke-width:3.0;" width="8" x="850" y="28"/><rect fill="#FFFF00" height="4" style="stroke:#A80036;stroke-width:3.0;" width="8" x="850" y="36"/><text fill="#000000" font-family="Roboto" font-size="52" lengthAdjust="spacing" textLength="426" x="418" y="102.2422">Command handler</text><!--MD5=[77b6a0c736885375a3ffb1a308147d21]
entity pr--><rect fill="#FFFF00" height="120.9375" style="stroke:#A80036;stroke-width:3.0;" width="292" x="1225" y="286"/><rect fill="#FFFF00" height="20" style="stroke:#A80036;stroke-width:3.0;" width="30" x="1477" y="296"/><rect fill="#FFFF00" height="4" style="stroke:#A80036;stroke-width:3.0;" width="8" x="1473" y="300"/><rect fill="#FFFF00" height="4" style="stroke:#A80036;stroke-width:3.0;" width="8" x="1473" y="308"/><text fill="#000000" font-family="Roboto" font-size="52" lengthAdjust="spacing" textLength="212" x="1255" y="374.2422">Projector</text><!--MD5=[dedfc5a9d92a37b91d8f948a8cc861cf]
entity ge--><rect fill="#FFFF00" height="120.9375" style="stroke:#A80036;stroke-width:3.0;" width="498" x="340" y="558"/><rect fill="#FFFF00" height="20" style="stroke:#A80036;stroke-width:3.0;" width="30" x="798" y="568"/><rect fill="#FFFF00" height="4" style="stroke:#A80036;stroke-width:3.0;" width="8" x="794" y="572"/><rect fill="#FFFF00" height="4" style="stroke:#A80036;stroke-width:3.0;" width="8" x="794" y="580"/><text fill="#000000" font-family="Roboto" font-size="52" lengthAdjust="spacing" textLength="418" x="370" y="646.2422">GraphQL endpoint</text><!--MD5=[b9586600103814a499497f8f31890a4f]
entity fs--><rect fill="#90EE90" height="120.9375" style="stroke:#A80036;stroke-width:3.0;" width="442" x="14" y="286"/><rect fill="#90EE90" height="20" style="stroke:#A80036;stroke-width:3.0;" width="30" x="416" y="296"/><rect fill="#90EE90" height="4" style="stroke:#A80036;stroke-width:3.0;" width="8" x="412" y="300"/><rect fill="#90EE90" height="4" style="stroke:#A80036;stroke-width:3.0;" width="8" x="412" y="308"/><text fill="#000000" font-family="Roboto" font-size="52" lengthAdjust="spacing" textLength="362" x="44" y="374.2422">Frontend server</text><!--MD5=[25e42c86a776e1c683b472489ed04c1e]
entity bk--><rect fill="#90EE90" height="120.9375" style="stroke:#A80036;stroke-width:3.0;" width="204" x="927" y="286"/><rect fill="#90EE90" height="20" style="stroke:#A80036;stroke-width:3.0;" width="30" x="1091" y="296"/><rect fill="#90EE90" height="4" style="stroke:#A80036;stroke-width:3.0;" width="8" x="1087" y="300"/><rect fill="#90EE90" height="4" style="stroke:#A80036;stroke-width:3.0;" width="8" x="1087" y="308"/><text fill="#000000" font-family="Roboto" font-size="52" lengthAdjust="spacing" textLength="124" x="957" y="374.2422">BKES</text><!--MD5=[979c31051cf8d07bdf927ed864b836ec]
entity cl--><ellipse cx="589" cy="273" fill="#FFFFFF" rx="16" ry="16" style="stroke:#A80036;stroke-width:3.0;"/><path d="M589,289 L589,343 M563,305 L615,305 M589,343 L563,373 M589,343 L615,373 " fill="none" style="stroke:#A80036;stroke-width:3.0;"/><text fill="#000000" font-family="Roboto" font-size="52" lengthAdjust="spacing" textLength="124" x="527" y="426.2422">client</text><!--MD5=[4c72282c5405b3efc9f1d632d9d9d02c]
link ge to ka--><path d="M849.04,618 C865.56,618 882.08,618 898.6,618 " fill="none" id="ge-ka" style="stroke:#A80036;stroke-width:2.0;"/><polygon fill="#A80036" points="908.9,618,890.9229,609.9486,898.9,617.9714,890.8772,625.9485,908.9,618" style="stroke:#A80036;stroke-width:2.0;"/><polygon fill="#A80036" points="838.6,618,856.6,626,848.6,618,856.6,610,838.6,618" style="stroke:#A80036;stroke-width:2.0;"/><!--MD5=[c3297a582d3a89a465219808e842a826]
link fs to cl--><path d="M456.24,346 C476.26,346 496.28,346 516.3,346 " fill="none" id="fs-to-cl" style="stroke:#A80036;stroke-width:2.0;"/><polygon fill="#A80036" points="526.78,346,508.78,338,516.78,346,508.78,354,526.78,346" style="stroke:#A80036;stroke-width:2.0;"/><!--MD5=[f3db19617524fa2b1675bee631d7f11c]
link cl to ge--><path d="M589,448.94 C589,481.52 589,516.88 589,546.64 " fill="none" id="cl-ge" style="stroke:#A80036;stroke-width:2.0;"/><polygon fill="#A80036" points="589,557.34,597,539.34,589,547.34,581,539.34,589,557.34" style="stroke:#A80036;stroke-width:2.0;"/><polygon fill="#A80036" points="589,438.74,581,456.74,589,448.74,597,456.74,589,438.74" style="stroke:#A80036;stroke-width:2.0;"/><!--MD5=[b7f75a60c338ac0d2e012333e1e2c547]
link ch to ka--><path d="M687.14,142.98 C737.24,215.7 819.68,335.18 891,438 C916.52,474.8 945.1,515.82 968.38,549.2 " fill="none" id="ch-ka" style="stroke:#A80036;stroke-width:2.0;"/><polygon fill="#A80036" points="974.18,557.52,970.4523,538.1782,968.4627,549.3156,957.3253,547.326,974.18,557.52" style="stroke:#A80036;stroke-width:2.0;"/><polygon fill="#A80036" points="681.2,134.36,684.8194,153.7223,686.8713,142.5963,697.9974,144.6482,681.2,134.36" style="stroke:#A80036;stroke-width:2.0;"/><!--MD5=[736e9493d9edfa0dd54afe488857dbb2]
link pr to ka--><path d="M1285.22,412.58 C1229.14,454.8 1156.18,509.72 1100.22,551.84 " fill="none" id="pr-ka" style="stroke:#A80036;stroke-width:2.0;"/><polygon fill="#A80036" points="1092.1,557.96,1111.2822,553.4832,1100.0759,551.928,1101.6311,540.7217,1092.1,557.96" style="stroke:#A80036;stroke-width:2.0;"/><polygon fill="#A80036" points="1293.76,406.16,1274.5676,410.593,1285.7703,412.1737,1284.1896,423.3765,1293.76,406.16" style="stroke:#A80036;stroke-width:2.0;"/><!--MD5=[9955c8460b240defde3c06f4c8a9365c]
link ch to pgb--><path d="M904.86,74 C921.38,74 937.9,74 954.42,74 " fill="none" id="ch-pgb" style="stroke:#A80036;stroke-width:2.0;"/><polygon fill="#A80036" points="964.72,74,946.72,66,954.72,74,946.72,82,964.72,74" style="stroke:#A80036;stroke-width:2.0;"/><polygon fill="#A80036" points="894.44,74,912.44,82,904.44,74,912.44,66,894.44,74" style="stroke:#A80036;stroke-width:2.0;"/><!--MD5=[0ed45a480f1e5c959ff72a9807eac756]
link pr to pgt--><path d="M1374.06,416.42 C1375.88,456.78 1378.14,507.68 1379.96,547.96 " fill="none" id="pr-pgt" style="stroke:#A80036;stroke-width:2.0;"/><polygon fill="#A80036" points="1380.4,557.96,1387.6219,539.634,1379.9718,547.9692,1371.6366,540.3191,1380.4,557.96" style="stroke:#A80036;stroke-width:2.0;"/><polygon fill="#A80036" points="1373.6,406.16,1366.4327,424.5075,1374.058,416.1495,1382.416,423.7747,1373.6,406.16" style="stroke:#A80036;stroke-width:2.0;"/><!--MD5=[47c64dc104d498dec348cd365ba1f9ed]
link pgb to bk--><path d="M1126.34,143.32 C1106.54,184.16 1081.34,236.1 1061.54,276.9 " fill="none" id="pgb-bk" style="stroke:#A80036;stroke-width:2.0;"/><polygon fill="#A80036" points="1057.16,285.96,1072.2203,273.2641,1061.529,276.9649,1057.8282,266.2736,1057.16,285.96" style="stroke:#A80036;stroke-width:2.0;"/><polygon fill="#A80036" points="1130.8,134.16,1115.7397,146.8559,1126.431,143.1551,1130.1318,153.8464,1130.8,134.16" style="stroke:#A80036;stroke-width:2.0;"/><!--MD5=[d2796fbbd868c8de95de3fa81242e80e]
link bk to ka--><path d="M1025.42,416.42 C1023.32,456.78 1020.66,507.68 1018.56,547.96 " fill="none" id="bk-ka" style="stroke:#A80036;stroke-width:2.0;"/><polygon fill="#A80036" points="1018.04,557.96,1026.9565,540.396,1018.5551,547.9733,1010.9778,539.5718,1018.04,557.96" style="stroke:#A80036;stroke-width:2.0;"/><polygon fill="#A80036" points="1025.96,406.16,1017.0461,423.7254,1025.4464,416.1468,1033.0249,424.5471,1025.96,406.16" style="stroke:#A80036;stroke-width:2.0;"/><!--MD5=[e9c3f328ca308fe6c805f19c481179ec]
@startuml
skinparam shadowing false
skinparam defaultFontName Roboto
skinparam defaultFontSize 26

database [projection db] as pgt #LightBlue
database [aggregate db] as pgb #LightBlue
[Kafka] as ka #LightGrey
[Command handler] as ch #Yellow
[Projector] as pr #Yellow
[GraphQL endpoint] as ge #Yellow
[Frontend server] as fs #LightGreen
[BKES] as bk #LightGreen
actor client as cl #White

ge <-right-> ka
cl <-left- fs
cl <- -> ge
ch <- -> ka
pr <- -> ka
ch <-right-> pgb
pr <- -> pgt
pgb <- -> bk
bk <- -> ka
@enduml

PlantUML version 1.2021.4(Sun Apr 04 10:49:39 CEST 2021)
(GPL source distribution)
Java Runtime: OpenJDK Runtime Environment
JVM: Dynamic Code Evolution 64-Bit Server VM
Default Encoding: UTF-8
Language: en
Country: NL
--></g></svg>