<?xml version="1.0" encoding="UTF-8" standalone="no"?><svg xmlns="http://www.w3.org/2000/svg" xmlns:xlink="http://www.w3.org/1999/xlink" contentScriptType="application/ecmascript" contentStyleType="text/css" height="924px" preserveAspectRatio="none" style="width:1412px;height:924px;" version="1.1" viewBox="0 0 1412 924" width="1412px" zoomAndPan="magnify"><defs/><g><!--MD5=[f6bfcafd820c9a76ef45106837fbc975]
entity pgt--><rect fill="#ADD8E6" height="120.9375" style="stroke:#A80036;stroke-width:3.0;" width="384" x="905" y="313"/><rect fill="#ADD8E6" height="20" style="stroke:#A80036;stroke-width:3.0;" width="30" x="1249" y="323"/><rect fill="#ADD8E6" height="4" style="stroke:#A80036;stroke-width:3.0;" width="8" x="1245" y="327"/><rect fill="#ADD8E6" height="4" style="stroke:#A80036;stroke-width:3.0;" width="8" x="1245" y="335"/><text fill="#000000" font-family="Roboto" font-size="52" lengthAdjust="spacing" textLength="304" x="935" y="401.2422">projection db</text><!--MD5=[deda91f2bf9c11baeebd5a13a4635f8d]
entity pgb--><rect fill="#ADD8E6" height="120.9375" style="stroke:#A80036;stroke-width:3.0;" width="388" x="1013" y="793"/><rect fill="#ADD8E6" height="20" style="stroke:#A80036;stroke-width:3.0;" width="30" x="1361" y="803"/><rect fill="#ADD8E6" height="4" style="stroke:#A80036;stroke-width:3.0;" width="8" x="1357" y="807"/><rect fill="#ADD8E6" height="4" style="stroke:#A80036;stroke-width:3.0;" width="8" x="1357" y="815"/><text fill="#000000" font-family="Roboto" font-size="52" lengthAdjust="spacing" textLength="308" x="1043" y="881.2422">aggregate db</text><!--MD5=[6d2a6cf4a8ae9c6575d0c7e23e26fe98]
entity ka--><rect fill="#D3D3D3" height="120.9375" style="stroke:#A80036;stroke-width:3.0;" width="212" x="583" y="553"/><rect fill="#D3D3D3" height="20" style="stroke:#A80036;stroke-width:3.0;" width="30" x="755" y="563"/><rect fill="#D3D3D3" height="4" style="stroke:#A80036;stroke-width:3.0;" width="8" x="751" y="567"/><rect fill="#D3D3D3" height="4" style="stroke:#A80036;stroke-width:3.0;" width="8" x="751" y="575"/><text fill="#000000" font-family="Roboto" font-size="52" lengthAdjust="spacing" textLength="132" x="613" y="641.2422">Kafka</text><!--MD5=[6377be883f12643b62e189b60fe92e84]
entity ch--><rect fill="#FFFF00" height="120.9375" style="stroke:#A80036;stroke-width:3.0;" width="506" x="436" y="793"/><rect fill="#FFFF00" height="20" style="stroke:#A80036;stroke-width:3.0;" width="30" x="902" y="803"/><rect fill="#FFFF00" height="4" style="stroke:#A80036;stroke-width:3.0;" width="8" x="898" y="807"/><rect fill="#FFFF00" height="4" style="stroke:#A80036;stroke-width:3.0;" width="8" x="898" y="815"/><text fill="#000000" font-family="Roboto" font-size="52" lengthAdjust="spacing" textLength="426" x="466" y="881.2422">Command handler</text><!--MD5=[77b6a0c736885375a3ffb1a308147d21]
entity pr--><rect fill="#FFFF00" height="120.9375" style="stroke:#A80036;stroke-width:3.0;" width="292" x="543" y="313"/><rect fill="#FFFF00" height="20" style="stroke:#A80036;stroke-width:3.0;" width="30" x="795" y="323"/><rect fill="#FFFF00" height="4" style="stroke:#A80036;stroke-width:3.0;" width="8" x="791" y="327"/><rect fill="#FFFF00" height="4" style="stroke:#A80036;stroke-width:3.0;" width="8" x="791" y="335"/><text fill="#000000" font-family="Roboto" font-size="52" lengthAdjust="spacing" textLength="212" x="573" y="401.2422">Projector</text><!--MD5=[dedfc5a9d92a37b91d8f948a8cc861cf]
entity ge--><rect fill="#FFFF00" height="120.9375" style="stroke:#A80036;stroke-width:3.0;" width="498" x="14" y="553"/><rect fill="#FFFF00" height="20" style="stroke:#A80036;stroke-width:3.0;" width="30" x="472" y="563"/><rect fill="#FFFF00" height="4" style="stroke:#A80036;stroke-width:3.0;" width="8" x="468" y="567"/><rect fill="#FFFF00" height="4" style="stroke:#A80036;stroke-width:3.0;" width="8" x="468" y="575"/><text fill="#000000" font-family="Roboto" font-size="52" lengthAdjust="spacing" textLength="418" x="44" y="641.2422">GraphQL endpoint</text><!--MD5=[b9586600103814a499497f8f31890a4f]
entity fs--><rect fill="#90EE90" height="120.9375" style="stroke:#A80036;stroke-width:3.0;" width="442" x="396" y="41"/><rect fill="#90EE90" height="20" style="stroke:#A80036;stroke-width:3.0;" width="30" x="798" y="51"/><rect fill="#90EE90" height="4" style="stroke:#A80036;stroke-width:3.0;" width="8" x="794" y="55"/><rect fill="#90EE90" height="4" style="stroke:#A80036;stroke-width:3.0;" width="8" x="794" y="63"/><text fill="#000000" font-family="Roboto" font-size="52" lengthAdjust="spacing" textLength="362" x="426" y="129.2422">Frontend server</text><!--MD5=[979c31051cf8d07bdf927ed864b836ec]
entity cl--><ellipse cx="263" cy="28" fill="#FFFFFF" rx="16" ry="16" style="stroke:#A80036;stroke-width:3.0;"/><path d="M263,44 L263,98 M237,60 L289,60 M263,98 L237,128 M263,98 L289,128 " fill="none" style="stroke:#A80036;stroke-width:3.0;"/><text fill="#000000" font-family="Roboto" font-size="52" lengthAdjust="spacing" textLength="124" x="201" y="181.2422">client</text><!--MD5=[4c72282c5405b3efc9f1d632d9d9d02c]
link ge to ka--><path d="M523.04,613 C539.56,613 556.08,613 572.6,613 " fill="none" id="ge-ka" style="stroke:#A80036;stroke-width:2.0;"/><polygon fill="#A80036" points="582.9,613,564.9229,604.9486,572.9,612.9714,564.8772,620.9485,582.9,613" style="stroke:#A80036;stroke-width:2.0;"/><polygon fill="#A80036" points="512.6,613,530.6,621,522.6,613,530.6,605,512.6,613" style="stroke:#A80036;stroke-width:2.0;"/><!--MD5=[7b3cc546a3de5e4114e780ad885d2cb4]
reverse link cl to fs--><path d="M335.72,101 C355.78,101 375.84,101 395.9,101 " fill="none" id="cl-backto-fs" style="stroke:#A80036;stroke-width:2.0;"/><polygon fill="#A80036" points="325.22,101,343.22,109,335.22,101,343.22,93,325.22,101" style="stroke:#A80036;stroke-width:2.0;"/><!--MD5=[f3db19617524fa2b1675bee631d7f11c]
link cl to ge--><path d="M263,203.78 C263,303.98 263,454.96 263,542.16 " fill="none" id="cl-ge" style="stroke:#A80036;stroke-width:2.0;"/><polygon fill="#A80036" points="263,552.48,271,534.48,263,542.48,255,534.48,263,552.48" style="stroke:#A80036;stroke-width:2.0;"/><polygon fill="#A80036" points="263,193.24,255,211.24,263,203.24,271,211.24,263,193.24" style="stroke:#A80036;stroke-width:2.0;"/><!--MD5=[78aeed854374c05e45ee4143ccdfb700]
link ka to ch--><path d="M689,683.8 C689,714.78 689,751.26 689,782.24 " fill="none" id="ka-ch" style="stroke:#A80036;stroke-width:2.0;"/><polygon fill="#A80036" points="689,792.52,697,774.52,689,782.52,681,774.52,689,792.52" style="stroke:#A80036;stroke-width:2.0;"/><polygon fill="#A80036" points="689,673.34,681,691.34,689,683.34,697,691.34,689,673.34" style="stroke:#A80036;stroke-width:2.0;"/><!--MD5=[736e9493d9edfa0dd54afe488857dbb2]
link pr to ka--><path d="M689,443.8 C689,474.78 689,511.26 689,542.24 " fill="none" id="pr-ka" style="stroke:#A80036;stroke-width:2.0;"/><polygon fill="#A80036" points="689,552.52,697,534.52,689,542.52,681,534.52,689,552.52" style="stroke:#A80036;stroke-width:2.0;"/><polygon fill="#A80036" points="689,433.34,681,451.34,689,443.34,697,451.34,689,433.34" style="stroke:#A80036;stroke-width:2.0;"/><!--MD5=[9955c8460b240defde3c06f4c8a9365c]
link ch to pgb--><path d="M952.86,853 C969.38,853 985.9,853 1002.42,853 " fill="none" id="ch-pgb" style="stroke:#A80036;stroke-width:2.0;"/><polygon fill="#A80036" points="1012.72,853,994.72,845,1002.72,853,994.72,861,1012.72,853" style="stroke:#A80036;stroke-width:2.0;"/><polygon fill="#A80036" points="942.44,853,960.44,861,952.44,853,960.44,845,942.44,853" style="stroke:#A80036;stroke-width:2.0;"/><!--MD5=[0ed45a480f1e5c959ff72a9807eac756]
link pr to pgt--><path d="M845.86,373 C862.06,373 878.26,373 894.46,373 " fill="none" id="pr-pgt" style="stroke:#A80036;stroke-width:2.0;"/><polygon fill="#A80036" points="904.54,373,886.54,365,894.54,373,886.54,381,904.54,373" style="stroke:#A80036;stroke-width:2.0;"/><polygon fill="#A80036" points="835.62,373,853.62,381,845.62,373,853.62,365,835.62,373" style="stroke:#A80036;stroke-width:2.0;"/><!--MD5=[f2f606a4cf2eb6211876e3506b78b529]
@startuml
skinparam shadowing false
skinparam defaultFontName Roboto
skinparam defaultFontSize 26

database [projection db] as pgt #LightBlue
database [aggregate db] as pgb #LightBlue
[Kafka] as ka #LightGrey
[Command handler] as ch #Yellow
[Projector] as pr #Yellow
[GraphQL endpoint] as ge #Yellow
[Frontend server] as fs #LightGreen
actor client as cl #White

ge <-right-> ka
cl <- fs
cl <- - -> ge
ch <-up-> ka
pr <- -> ka
ch <-right-> pgb
pr <-right-> pgt
@enduml

PlantUML version 1.2021.01(Tue Feb 02 08:55:08 CET 2021)
(GPL source distribution)
Java Runtime: OpenJDK Runtime Environment
JVM: OpenJDK 64-Bit Server VM
Default Encoding: UTF-8
Language: en
Country: NL
--></g></svg>