<?xml version="1.0" encoding="UTF-8" standalone="no"?><svg xmlns="http://www.w3.org/2000/svg" xmlns:xlink="http://www.w3.org/1999/xlink" contentScriptType="application/ecmascript" contentStyleType="text/css" height="465px" preserveAspectRatio="none" style="width:633px;height:465px;" version="1.1" viewBox="0 0 633 465" width="633px" zoomAndPan="magnify"><defs/><g><!--MD5=[f6bfcafd820c9a76ef45106837fbc975]
entity pgt--><rect fill="#ADD8E6" height="60.4688" style="stroke:#A80036;stroke-width:1.5;" width="192" x="377" y="7"/><rect fill="#ADD8E6" height="10" style="stroke:#A80036;stroke-width:1.5;" width="15" x="549" y="12"/><rect fill="#ADD8E6" height="2" style="stroke:#A80036;stroke-width:1.5;" width="4" x="547" y="14"/><rect fill="#ADD8E6" height="2" style="stroke:#A80036;stroke-width:1.5;" width="4" x="547" y="18"/><text fill="#000000" font-family="Roboto" font-size="26" lengthAdjust="spacing" textLength="152" x="392" y="51.1211">projection db</text><!--MD5=[deda91f2bf9c11baeebd5a13a4635f8d]
entity pgb--><rect fill="#ADD8E6" height="60.4688" style="stroke:#A80036;stroke-width:1.5;" width="194" x="7" y="399"/><rect fill="#ADD8E6" height="10" style="stroke:#A80036;stroke-width:1.5;" width="15" x="181" y="404"/><rect fill="#ADD8E6" height="2" style="stroke:#A80036;stroke-width:1.5;" width="4" x="179" y="406"/><rect fill="#ADD8E6" height="2" style="stroke:#A80036;stroke-width:1.5;" width="4" x="179" y="410"/><text fill="#000000" font-family="Roboto" font-size="26" lengthAdjust="spacing" textLength="154" x="22" y="443.1211">aggregate db</text><!--MD5=[6d2a6cf4a8ae9c6575d0c7e23e26fe98]
entity ka--><rect fill="#D3D3D3" height="60.4688" style="stroke:#A80036;stroke-width:1.5;" width="106" x="416" y="279"/><rect fill="#D3D3D3" height="10" style="stroke:#A80036;stroke-width:1.5;" width="15" x="502" y="284"/><rect fill="#D3D3D3" height="2" style="stroke:#A80036;stroke-width:1.5;" width="4" x="500" y="286"/><rect fill="#D3D3D3" height="2" style="stroke:#A80036;stroke-width:1.5;" width="4" x="500" y="290"/><text fill="#000000" font-family="Roboto" font-size="26" lengthAdjust="spacing" textLength="66" x="431" y="323.1211">Kafka</text><!--MD5=[6377be883f12643b62e189b60fe92e84]
entity ch--><rect fill="#FFFF00" height="60.4688" style="stroke:#A80036;stroke-width:1.5;" width="253" x="236.5" y="399"/><rect fill="#FFFF00" height="10" style="stroke:#A80036;stroke-width:1.5;" width="15" x="469.5" y="404"/><rect fill="#FFFF00" height="2" style="stroke:#A80036;stroke-width:1.5;" width="4" x="467.5" y="406"/><rect fill="#FFFF00" height="2" style="stroke:#A80036;stroke-width:1.5;" width="4" x="467.5" y="410"/><text fill="#000000" font-family="Roboto" font-size="26" lengthAdjust="spacing" textLength="213" x="251.5" y="443.1211">Command handler</text><!--MD5=[77b6a0c736885375a3ffb1a308147d21]
entity pr--><rect fill="#FFFF00" height="60.4688" style="stroke:#A80036;stroke-width:1.5;" width="146" x="398" y="143"/><rect fill="#FFFF00" height="10" style="stroke:#A80036;stroke-width:1.5;" width="15" x="524" y="148"/><rect fill="#FFFF00" height="2" style="stroke:#A80036;stroke-width:1.5;" width="4" x="522" y="150"/><rect fill="#FFFF00" height="2" style="stroke:#A80036;stroke-width:1.5;" width="4" x="522" y="154"/><text fill="#000000" font-family="Roboto" font-size="26" lengthAdjust="spacing" textLength="106" x="413" y="187.1211">Projector</text><!--MD5=[dedfc5a9d92a37b91d8f948a8cc861cf]
entity ge--><rect fill="#FFFF00" height="60.4688" style="stroke:#A80036;stroke-width:1.5;" width="249" x="127.5" y="279"/><rect fill="#FFFF00" height="10" style="stroke:#A80036;stroke-width:1.5;" width="15" x="356.5" y="284"/><rect fill="#FFFF00" height="2" style="stroke:#A80036;stroke-width:1.5;" width="4" x="354.5" y="286"/><rect fill="#FFFF00" height="2" style="stroke:#A80036;stroke-width:1.5;" width="4" x="354.5" y="290"/><text fill="#000000" font-family="Roboto" font-size="26" lengthAdjust="spacing" textLength="209" x="142.5" y="323.1211">GraphQL endpoint</text><!--MD5=[b9586600103814a499497f8f31890a4f]
entity fs--><rect fill="#90EE90" height="60.4688" style="stroke:#A80036;stroke-width:1.5;" width="221" x="120.5" y="7"/><rect fill="#90EE90" height="10" style="stroke:#A80036;stroke-width:1.5;" width="15" x="321.5" y="12"/><rect fill="#90EE90" height="2" style="stroke:#A80036;stroke-width:1.5;" width="4" x="319.5" y="14"/><rect fill="#90EE90" height="2" style="stroke:#A80036;stroke-width:1.5;" width="4" x="319.5" y="18"/><text fill="#000000" font-family="Roboto" font-size="26" lengthAdjust="spacing" textLength="181" x="135.5" y="51.1211">Frontend server</text><!--MD5=[25e42c86a776e1c683b472489ed04c1e]
entity bk--><rect fill="#90EE90" height="60.4688" style="stroke:#A80036;stroke-width:1.5;" width="102" x="525" y="399"/><rect fill="#90EE90" height="10" style="stroke:#A80036;stroke-width:1.5;" width="15" x="607" y="404"/><rect fill="#90EE90" height="2" style="stroke:#A80036;stroke-width:1.5;" width="4" x="605" y="406"/><rect fill="#90EE90" height="2" style="stroke:#A80036;stroke-width:1.5;" width="4" x="605" y="410"/><text fill="#000000" font-family="Roboto" font-size="26" lengthAdjust="spacing" textLength="62" x="540" y="443.1211">BKES</text><!--MD5=[979c31051cf8d07bdf927ed864b836ec]
entity cl--><ellipse cx="245" cy="136.5" fill="#FFFFFF" rx="8" ry="8" style="stroke:#A80036;stroke-width:1.5;"/><path d="M245,144.5 L245,171.5 M232,152.5 L258,152.5 M245,171.5 L232,186.5 M245,171.5 L258,186.5 " fill="none" style="stroke:#A80036;stroke-width:1.5;"/><text fill="#000000" font-family="Roboto" font-size="26" lengthAdjust="spacing" textLength="62" x="214" y="213.1211">client</text><!--MD5=[4c72282c5405b3efc9f1d632d9d9d02c]
link ge to ka--><path d="M381.83,309 C391.51,309 401.2,309 410.88,309 " fill="none" id="ge-ka" style="stroke:#A80036;stroke-width:1.0;"/><polygon fill="#A80036" points="415.95,309,406.95,305,410.95,309,406.95,313,415.95,309" style="stroke:#A80036;stroke-width:1.0;"/><polygon fill="#A80036" points="376.61,309,385.61,313,381.61,309,385.61,305,376.61,309" style="stroke:#A80036;stroke-width:1.0;"/><!--MD5=[c3297a582d3a89a465219808e842a826]
link fs to cl--><path d="M234.04,67.08 C235.71,83.05 237.82,103.31 239.75,121.75 " fill="none" id="fs-to-cl" style="stroke:#A80036;stroke-width:1.0;"/><polygon fill="#A80036" points="240.29,126.9,243.3427,117.5362,239.7755,121.9265,235.3851,118.3594,240.29,126.9" style="stroke:#A80036;stroke-width:1.0;"/><!--MD5=[f3db19617524fa2b1675bee631d7f11c]
link cl to ge--><path d="M247.64,224.47 C248.49,240.76 249.41,258.44 250.19,273.32 " fill="none" id="cl-ge" style="stroke:#A80036;stroke-width:1.0;"/><polygon fill="#A80036" points="250.47,278.67,254.0011,269.4759,250.2125,273.6766,246.0117,269.888,250.47,278.67" style="stroke:#A80036;stroke-width:1.0;"/><polygon fill="#A80036" points="247.37,219.37,243.8375,228.5636,247.6268,224.3634,251.827,228.1527,247.37,219.37" style="stroke:#A80036;stroke-width:1.0;"/><!--MD5=[78aeed854374c05e45ee4143ccdfb700]
link ka to ch--><path d="M439.29,343.07 C424.8,359.2 407.41,378.56 392.89,394.72 " fill="none" id="ka-ch" style="stroke:#A80036;stroke-width:1.0;"/><polygon fill="#A80036" points="389.27,398.76,398.2639,394.7462,392.6148,395.0435,392.3175,389.3945,389.27,398.76" style="stroke:#A80036;stroke-width:1.0;"/><polygon fill="#A80036" points="442.8,339.17,433.8138,343.2009,439.4623,342.8928,439.7704,348.5413,442.8,339.17" style="stroke:#A80036;stroke-width:1.0;"/><!--MD5=[736e9493d9edfa0dd54afe488857dbb2]
link pr to ka--><path d="M470.49,208.21 C470.19,228.39 469.81,253.84 469.51,273.98 " fill="none" id="pr-ka" style="stroke:#A80036;stroke-width:1.0;"/><polygon fill="#A80036" points="469.43,278.98,473.5582,270.0381,469.5014,273.9805,465.559,269.9238,469.43,278.98" style="stroke:#A80036;stroke-width:1.0;"/><polygon fill="#A80036" points="470.57,203.08,466.4418,212.0219,470.4986,208.0795,474.441,212.1362,470.57,203.08" style="stroke:#A80036;stroke-width:1.0;"/><!--MD5=[d7b1477d0b58b9e0987107755f33c763]
link pgb to ch--><path d="M206.33,429 C214.58,429 222.83,429 231.08,429 " fill="none" id="pgb-ch" style="stroke:#A80036;stroke-width:1.0;"/><polygon fill="#A80036" points="236.22,429,227.22,425,231.22,429,227.22,433,236.22,429" style="stroke:#A80036;stroke-width:1.0;"/><polygon fill="#A80036" points="201.12,429,210.1314,432.9743,206.12,428.9857,210.1085,424.9743,201.12,429" style="stroke:#A80036;stroke-width:1.0;"/><!--MD5=[e25fa506042167c173c79fd5fa504380]
link pgt to pr--><path d="M472.49,72.21 C472.19,92.39 471.81,117.84 471.51,137.98 " fill="none" id="pgt-pr" style="stroke:#A80036;stroke-width:1.0;"/><polygon fill="#A80036" points="471.43,142.98,475.5582,134.0381,471.5014,137.9805,467.559,133.9238,471.43,142.98" style="stroke:#A80036;stroke-width:1.0;"/><polygon fill="#A80036" points="472.57,67.08,468.4418,76.0219,472.4986,72.0795,476.441,76.1362,472.57,67.08" style="stroke:#A80036;stroke-width:1.0;"/><!--MD5=[24e4a2a36c8c00595d1d42735c16efcf]
link ch to bk--><path d="M495.08,429 C503.3,429 511.53,429 519.75,429 " fill="none" id="ch-bk" style="stroke:#A80036;stroke-width:1.0;"/><polygon fill="#A80036" points="524.87,429,515.87,425,519.87,429,515.87,433,524.87,429" style="stroke:#A80036;stroke-width:1.0;"/><polygon fill="#A80036" points="489.88,429,498.88,433,494.88,429,498.88,425,489.88,429" style="stroke:#A80036;stroke-width:1.0;"/><!--MD5=[45f18c843a703c27ad7c5d04f7244546]
link ka to bk--><path d="M498.99,343.07 C513.62,359.2 531.17,378.56 545.82,394.72 " fill="none" id="ka-bk" style="stroke:#A80036;stroke-width:1.0;"/><polygon fill="#A80036" points="549.48,398.76,546.3947,389.4069,546.1202,395.0571,540.47,394.7826,549.48,398.76" style="stroke:#A80036;stroke-width:1.0;"/><polygon fill="#A80036" points="495.45,339.17,498.5353,348.5231,498.8098,342.8729,504.46,343.1474,495.45,339.17" style="stroke:#A80036;stroke-width:1.0;"/><!--MD5=[2850f0608832694ec5479662ec2204a2]
@startuml
skinparam shadowing false
skinparam defaultFontName Roboto
skinparam defaultFontSize 26

database [projection db] as pgt #LightBlue
database [aggregate db] as pgb #LightBlue
[Kafka] as ka #LightGrey
[Command handler] as ch #Yellow
[Projector] as pr #Yellow
[GraphQL endpoint] as ge #Yellow
[Frontend server] as fs #LightGreen
[BKES] as bk #LightGreen
actor client as cl #White

ge <-right-> ka
cl <-up- fs
cl <- -> ge
ch <-up-> ka
pr <- -> ka
ch <-left-> pgb
pr <-up-> pgt
ch <-right-> bk
bk <-up-> ka
@enduml

PlantUML version 1.2021.4(Sun Apr 04 10:49:39 CEST 2021)
(GPL source distribution)
Java Runtime: OpenJDK Runtime Environment
JVM: Dynamic Code Evolution 64-Bit Server VM
Default Encoding: UTF-8
Language: en
Country: NL
--></g></svg>